<?xml version="1.0" encoding="UTF-8"?>
<svg viewBox="0 0 350 250" xmlns="http://www.w3.org/2000/svg">
  <title>ChicBySally Logo</title>
  <desc>A white SVG logo for ChicBySally, a fashion curator. It features an elegant line art illustration of a woman in a hat and the brand name in a stylish cursive font.</desc>
  
  <g fill="white" stroke="none">

    <!-- Icon: Elegant line art of a stylish woman wearing a hat -->
    <path d="M175,20
             C 125,20 90,50 90,90
             C 90,120 110,145 150,150
             L 150,140
             C 120,135 100,115 100,90
             C 100,55 130,30 175,30
             C 220,30 250,55 250,90
             C 250,115 230,135 200,140
             L 200,150
             C 240,145 260,120 260,90
             C 260,50 225,20 175,20 Z" />
    <path d="M150,150
             C 140,140 130,120 140,100
             C 145,90 155,85 165,85
             C 180,85 195,100 195,115
             C 195,130 180,145 160,150" />
    
    <!-- Text: "ChicBySally" in a cursive font -->
    <text x="65" y="220" font-family="'Brush Script MT', cursive" font-size="45">ChicBySally</text>
  </g>
</svg>
